<?xml version="1.0" standalone="no"?><!DOCTYPE svg PUBLIC "-//W3C//DTD SVG 1.1//EN" "http://www.w3.org/Graphics/SVG/1.1/DTD/svg11.dtd"><svg t="1712747375448" class="icon" viewBox="0 0 1024 1024" version="1.1" xmlns="http://www.w3.org/2000/svg" p-id="4783" xmlns:xlink="http://www.w3.org/1999/xlink" width="200" height="200"><path d="M330.666667 554.666667c-0.426667-14.933333 6.4-29.44 17.92-39.253334 32 6.826667 61.866667 20.053333 88.746666 39.253334 0 29.013333-23.893333 52.906667-53.333333 52.906666S331.093333 584.106667 330.666667 554.666667z m256 0c26.88-18.773333 56.746667-32 88.746666-38.826667 11.52 9.813333 18.346667 24.32 17.92 38.826667 0 29.866667-23.893333 53.76-53.333333 53.76s-53.333333-23.893333-53.333333-53.76zM512 384c-118.186667-1.706667-234.666667 27.733333-338.346667 85.333333L170.666667 512c0 52.48 12.373333 104.106667 35.84 151.04a2032.725333 2032.725333 0 0 1 610.986666 0c23.466667-46.933333 35.84-98.56 35.84-151.04l-2.986666-42.666667A676.224 676.224 0 0 0 512 384z m0-298.666667c235.648 0 426.666667 191.018667 426.666667 426.666667s-191.018667 426.666667-426.666667 426.666667S85.333333 747.648 85.333333 512 276.352 85.333333 512 85.333333z" p-id="4784" fill="#2c2c2c"></path></svg>